#Comment line ignore any data following # character 
#Hierarchical Translation and Rotation (.htr) file 
[Header]	
#Header keywords are followed by a single value 
FileType HTR		#Single word string
DataType HTRS		#Translation followed by rotation and scale data
FileVersion 1		#integer
NumSegments 84		#integer
NumFrames 2		#integer
DataFrameRate 30		#integer, data frame rate in this file
EulerRotationOrder ZYX
CalibrationUnits mm
RotationUnits Degrees
GlobalAxisofGravity Y
BoneLengthAxis Y
ScaleFactor 1.00
[SegmentNames&Hierarchy]
#CHILD	PARENT
MASTER GLOBAL
root MASTER
chest root
L_mid_tent01 root
R_mid_tent01 root
spine01 root
Bip01_Neck chest
L_humerus chest
R_humerus chest
weapon_bone chest
Bip01_Head Bip01_Neck
eye_left_bone Bip01_Head
eye_right_bone Bip01_Head
L_forearm L_humerus
L_front_hand L_forearm
L_weapon_bone L_forearm
L_front_hand01_01 L_front_hand
L_front_hand02_01 L_front_hand
L_front_hand03_01 L_front_hand
L_front_hand01_02 L_front_hand01_01
L_front_hand02_02 L_front_hand02_01
L_front_hand03_02 L_front_hand03_01
R_forearm R_humerus
R_front_hand R_forearm
R_weapon_bone R_forearm
R_front_hand01_01 R_front_hand
R_front_hand02_01 R_front_hand
R_front_hand03_01 R_front_hand
R_front_hand01_02 R_front_hand01_01
R_front_hand02_02 R_front_hand02_01
R_front_hand03_02 R_front_hand03_01
null_rope01_connect L_mid_tent01
Rope1_Seg01 null_rope01_connect
Rope1_Seg02 Rope1_Seg01
Rope1_Seg03 Rope1_Seg02
Rope1_Seg04 Rope1_Seg03
Rope1_Seg05 Rope1_Seg04
Rope1_Seg06 Rope1_Seg05
Rope1_Seg07 Rope1_Seg06
Rope1_Seg09 Rope1_Seg07
L_mid_hand01 Rope1_Seg09
L_mid_hand02 Rope1_Seg09
L_mid_hand03 Rope1_Seg09
null_rope02_connect R_mid_tent01
Rope2_Seg01 null_rope02_connect
Rope2_Seg02 Rope2_Seg01
Rope2_Seg03 Rope2_Seg02
Rope2_Seg04 Rope2_Seg03
Rope2_Seg05 Rope2_Seg04
Rope2_Seg06 Rope2_Seg05
Rope2_Seg07 Rope2_Seg06
Rope2_Seg09 Rope2_Seg07
R_mid_hand01 Rope2_Seg09
R_mid_hand02 Rope2_Seg09
R_mid_hand03 Rope2_Seg09
spine02 spine01
spine03 spine02
pelvis spine03
null_rope03_connect pelvis
null_rope04_connect pelvis
Rope3_Seg01 null_rope03_connect
Rope3_Seg02 Rope3_Seg01
Rope3_Seg03 Rope3_Seg02
Rope3_Seg04 Rope3_Seg03
Rope3_Seg05 Rope3_Seg04
Rope3_Seg06 Rope3_Seg05
Rope3_Seg07 Rope3_Seg06
Rope3_Seg08 Rope3_Seg07
Rope3_Seg09 Rope3_Seg08
R_rear_hand01 Rope3_Seg09
R_rear_hand02 Rope3_Seg09
R_rear_hand03 Rope3_Seg09
Rope4_Seg01 null_rope04_connect
Rope4_Seg02 Rope4_Seg01
Rope4_Seg03 Rope4_Seg02
Rope4_Seg04 Rope4_Seg03
Rope4_Seg05 Rope4_Seg04
Rope4_Seg06 Rope4_Seg05
Rope4_Seg07 Rope4_Seg06
Rope4_Seg08 Rope4_Seg07
Rope4_Seg09 Rope4_Seg08
L_rear_hand01 Rope4_Seg09
L_rear_hand02 Rope4_Seg09
L_rear_hand03 Rope4_Seg09
[BasePosition]
#SegmentName Tx, Ty, Tz, Rx, Ry, Rz, BoneLength
MASTER 0.000000 0.000000 0.000000 -90.000000 0.000000 0.000000 10.000000 
root 0.000000 0.000000 0.000000 0.000000 0.000000 0.000000 10.000000 
chest 0.000000 0.000000 0.000000 0.000000 0.000000 0.000000 10.000000 
L_mid_tent01 0.000000 0.000000 0.000000 0.000000 0.000000 0.000000 10.000000 
R_mid_tent01 0.000000 0.000000 0.000000 0.000000 0.000000 0.000000 10.000000 
spine01 0.000000 0.000000 0.000000 0.000000 0.000000 0.000000 10.000000 
Bip01_Neck 0.000000 0.000000 0.000000 0.000000 0.000000 0.000000 10.000000 
L_humerus 0.000000 0.000000 0.000000 0.000000 0.000000 0.000000 10.000000 
R_humerus 0.000000 0.000000 0.000000 0.000000 0.000000 0.000000 10.000000 
weapon_bone 0.000000 0.000000 0.000000 0.000000 0.000000 0.000000 10.000000 
Bip01_Head 0.000000 0.000000 0.000000 0.000000 0.000000 0.000000 10.000000 
eye_left_bone 0.000000 0.000000 0.000000 0.000000 0.000000 0.000000 10.000000 
eye_right_bone 0.000000 0.000000 0.000000 0.000000 0.000000 0.000000 10.000000 
L_forearm 0.000000 0.000000 0.000000 0.000000 0.000000 0.000000 10.000000 
L_front_hand 0.000000 0.000000 0.000000 0.000000 0.000000 0.000000 10.000000 
L_weapon_bone 0.000000 0.000000 0.000000 0.000000 0.000000 0.000000 10.000000 
L_front_hand01_01 0.000000 0.000000 0.000000 0.000000 0.000000 0.000000 10.000000 
L_front_hand02_01 0.000000 0.000000 0.000000 0.000000 0.000000 0.000000 10.000000 
L_front_hand03_01 0.000000 0.000000 0.000000 0.000000 0.000000 0.000000 10.000000 
L_front_hand01_02 0.000000 0.000000 0.000000 0.000000 0.000000 0.000000 10.000000 
L_front_hand02_02 0.000000 0.000000 0.000000 0.000000 0.000000 0.000000 10.000000 
L_front_hand03_02 0.000000 0.000000 0.000000 0.000000 0.000000 0.000000 10.000000 
R_forearm 0.000000 0.000000 0.000000 0.000000 0.000000 0.000000 10.000000 
R_front_hand 0.000000 0.000000 0.000000 0.000000 0.000000 0.000000 10.000000 
R_weapon_bone 0.000000 0.000000 0.000000 0.000000 0.000000 0.000000 10.000000 
R_front_hand01_01 0.000000 0.000000 0.000000 0.000000 0.000000 0.000000 10.000000 
R_front_hand02_01 0.000000 0.000000 0.000000 0.000000 0.000000 0.000000 10.000000 
R_front_hand03_01 0.000000 0.000000 0.000000 0.000000 0.000000 0.000000 10.000000 
R_front_hand01_02 0.000000 0.000000 0.000000 0.000000 0.000000 0.000000 10.000000 
R_front_hand02_02 0.000000 0.000000 0.000000 0.000000 0.000000 0.000000 10.000000 
R_front_hand03_02 0.000000 0.000000 0.000000 0.000000 0.000000 0.000000 10.000000 
null_rope01_connect 0.000000 0.000000 0.000000 0.000000 0.000000 0.000000 10.000000 
Rope1_Seg01 0.000000 0.000000 0.000000 0.000000 0.000000 0.000000 10.000000 
Rope1_Seg02 0.000000 0.000000 0.000000 0.000000 0.000000 0.000000 10.000000 
Rope1_Seg03 0.000000 0.000000 0.000000 0.000000 0.000000 0.000000 10.000000 
Rope1_Seg04 0.000000 0.000000 0.000000 0.000000 0.000000 0.000000 10.000000 
Rope1_Seg05 0.000000 0.000000 0.000000 0.000000 0.000000 0.000000 10.000000 
Rope1_Seg06 0.000000 0.000000 0.000000 0.000000 0.000000 0.000000 10.000000 
Rope1_Seg07 0.000000 0.000000 0.000000 0.000000 0.000000 0.000000 10.000000 
Rope1_Seg09 0.000000 0.000000 0.000000 0.000000 0.000000 0.000000 10.000000 
L_mid_hand01 0.000000 0.000000 0.000000 0.000000 0.000000 0.000000 10.000000 
L_mid_hand02 0.000000 0.000000 0.000000 0.000000 0.000000 0.000000 10.000000 
L_mid_hand03 0.000000 0.000000 0.000000 0.000000 0.000000 0.000000 10.000000 
null_rope02_connect 0.000000 0.000000 0.000000 0.000000 0.000000 0.000000 10.000000 
Rope2_Seg01 0.000000 0.000000 0.000000 0.000000 0.000000 0.000000 10.000000 
Rope2_Seg02 0.000000 0.000000 0.000000 0.000000 0.000000 0.000000 10.000000 
Rope2_Seg03 0.000000 0.000000 0.000000 0.000000 0.000000 0.000000 10.000000 
Rope2_Seg04 0.000000 0.000000 0.000000 0.000000 0.000000 0.000000 10.000000 
Rope2_Seg05 0.000000 0.000000 0.000000 0.000000 0.000000 0.000000 10.000000 
Rope2_Seg06 0.000000 0.000000 0.000000 0.000000 0.000000 0.000000 10.000000 
Rope2_Seg07 0.000000 0.000000 0.000000 0.000000 0.000000 0.000000 10.000000 
Rope2_Seg09 0.000000 0.000000 0.000000 0.000000 0.000000 0.000000 10.000000 
R_mid_hand01 0.000000 0.000000 0.000000 0.000000 0.000000 0.000000 10.000000 
R_mid_hand02 0.000000 0.000000 0.000000 0.000000 0.000000 0.000000 10.000000 
R_mid_hand03 0.000000 0.000000 0.000000 0.000000 0.000000 0.000000 10.000000 
spine02 0.000000 0.000000 0.000000 0.000000 0.000000 0.000000 10.000000 
spine03 0.000000 0.000000 0.000000 0.000000 0.000000 0.000000 10.000000 
pelvis 0.000000 0.000000 0.000000 0.000000 0.000000 0.000000 10.000000 
null_rope03_connect 0.000000 0.000000 0.000000 0.000000 0.000000 0.000000 10.000000 
null_rope04_connect 0.000000 0.000000 0.000000 0.000000 0.000000 0.000000 10.000000 
Rope3_Seg01 0.000000 0.000000 0.000000 0.000000 0.000000 0.000000 10.000000 
Rope3_Seg02 0.000000 0.000000 0.000000 0.000000 0.000000 0.000000 10.000000 
Rope3_Seg03 0.000000 0.000000 0.000000 0.000000 0.000000 0.000000 10.000000 
Rope3_Seg04 0.000000 0.000000 0.000000 0.000000 0.000000 0.000000 10.000000 
Rope3_Seg05 0.000000 0.000000 0.000000 0.000000 0.000000 0.000000 10.000000 
Rope3_Seg06 0.000000 0.000000 0.000000 0.000000 0.000000 0.000000 10.000000 
Rope3_Seg07 0.000000 0.000000 0.000000 0.000000 0.000000 0.000000 10.000000 
Rope3_Seg08 0.000000 0.000000 0.000000 0.000000 0.000000 0.000000 10.000000 
Rope3_Seg09 0.000000 0.000000 0.000000 0.000000 0.000000 0.000000 10.000000 
R_rear_hand01 0.000000 0.000000 0.000000 0.000000 0.000000 0.000000 10.000000 
R_rear_hand02 0.000000 0.000000 0.000000 0.000000 0.000000 0.000000 10.000000 
R_rear_hand03 0.000000 0.000000 0.000000 0.000000 0.000000 0.000000 10.000000 
Rope4_Seg01 0.000000 0.000000 0.000000 0.000000 0.000000 0.000000 10.000000 
Rope4_Seg02 0.000000 0.000000 0.000000 0.000000 0.000000 0.000000 10.000000 
Rope4_Seg03 0.000000 0.000000 0.000000 0.000000 0.000000 0.000000 10.000000 
Rope4_Seg04 0.000000 0.000000 0.000000 0.000000 0.000000 0.000000 10.000000 
Rope4_Seg05 0.000000 0.000000 0.000000 0.000000 0.000000 0.000000 10.000000 
Rope4_Seg06 0.000000 0.000000 0.000000 0.000000 0.000000 0.000000 10.000000 
Rope4_Seg07 0.000000 0.000000 0.000000 0.000000 0.000000 0.000000 10.000000 
Rope4_Seg08 0.000000 0.000000 0.000000 0.000000 0.000000 0.000000 10.000000 
Rope4_Seg09 0.000000 0.000000 0.000000 0.000000 0.000000 0.000000 10.000000 
L_rear_hand01 0.000000 0.000000 0.000000 0.000000 0.000000 0.000000 10.000000 
L_rear_hand02 0.000000 0.000000 0.000000 0.000000 0.000000 0.000000 10.000000 
L_rear_hand03 0.000000 0.000000 0.000000 0.000000 0.000000 0.000000 10.000000 
#Beginning of Data. Separated by tabs
#Fr	Tx	Ty	Tz	Rx	Ry	Rz	SF
[MASTER]
22 -0.000385 2481.843018 5939.863281 0.001660 0.001660 0.001660 6437.508789
23 -0.000415 2669.528809 5939.648438 0.001660 0.001660 0.001660 6511.974609
[root]
22 90.643448 -0.738568 1265.329224 -100.604408 -21.451674 -92.024033 1268.572021
23 100.027885 13.719766 1224.285034 -101.902725 -21.813562 -91.816566 1228.441162
[chest]
22 -84.512650 -34.090519 0.000000 8.431295 5.285719 -147.273453 91.129311
23 -84.512650 -34.090519 0.000000 8.689681 5.124407 -149.985458 91.129311
[L_mid_tent01]
22 27.299110 22.179281 -249.918701 -2.000525 21.339966 67.299889 252.381699
23 27.299114 22.179289 -249.918701 -1.906233 22.237202 67.333076 252.381699
[R_mid_tent01]
22 23.228794 24.509907 226.238495 171.719437 -24.977203 61.348125 228.744751
23 23.228794 24.509907 226.238495 172.101883 -24.668690 60.336117 228.744751
[spine01]
22 -0.361383 -0.195265 0.000000 0.001957 0.001295 23.008982 0.410763
23 -0.361383 -0.195265 0.000000 0.001957 0.001296 22.992840 0.410763
[Bip01_Neck]
22 165.484543 71.581718 0.000119 176.643677 -1.657967 43.431911 180.302734
23 165.484543 71.581718 0.000119 176.643677 -1.657967 43.431911 180.302734
[L_humerus]
22 -13.983130 -135.272980 -120.471481 105.242493 81.653862 -164.437424 181.680161
23 -13.983130 -135.272980 -120.471481 100.423996 81.841469 -169.269653 181.680161
[R_humerus]
22 -13.983309 -135.273102 125.287651 -166.146332 -76.696915 -99.220551 184.909012
23 -13.983309 -135.273102 125.287651 -167.086609 -75.911858 -98.223419 184.909012
[weapon_bone]
22 235.964890 -300.705902 0.000000 0.000000 -89.951546 -128.212341 382.234833
23 235.964890 -300.705902 0.000000 0.000000 -89.951546 -128.212341 382.234833
[Bip01_Head]
22 213.656601 185.126495 19.385839 4.965729 3.946318 -43.894573 283.366852
23 213.673691 185.077209 20.027311 4.962487 2.797813 -43.898746 283.392151
[eye_left_bone]
22 -24.626970 125.451866 -64.772606 0.000000 -90.000000 -99.840431 143.318359
23 -24.626970 125.451866 -64.772606 0.000000 -90.000000 -99.840431 143.318359
[eye_right_bone]
22 -24.626970 125.451866 64.327362 0.000000 -89.965736 80.156380 143.117676
23 -24.626970 125.451866 64.327362 0.000000 -89.972023 80.156380 143.117676
[L_forearm]
22 322.776093 0.000000 -0.000119 0.000148 -0.002343 -97.248772 322.776093
23 322.776093 0.000000 -0.000119 0.000153 -0.002342 -97.489326 322.776093
[L_front_hand]
22 241.149185 -0.042021 -3.300071 -176.504105 -1.833799 -27.423578 241.171753
23 241.149185 -0.042021 -3.300071 -176.234314 -1.833284 -27.423534 241.171753
[L_weapon_bone]
22 156.183838 0.000000 0.000000 0.000014 0.000007 0.000001 156.183838
23 156.183838 0.000000 0.000000 0.000014 0.000007 0.000001 156.183838
[L_front_hand01_01]
22 86.095154 20.947098 -0.655860 -0.320916 -0.506937 70.186234 88.609184
23 86.095154 20.947098 -0.655860 -0.334039 -0.500940 71.473793 88.609184
[L_front_hand02_01]
22 86.935165 -11.437475 24.513514 146.956528 -57.330307 -52.653667 91.046425
23 86.935165 -11.437475 24.513514 148.679001 -58.017033 -54.691509 91.046425
[L_front_hand03_01]
22 86.637497 -14.123976 -20.424902 -146.987762 55.547066 -54.435089 90.126129
23 86.637497 -14.123976 -20.424902 -148.599609 56.232170 -56.378216 90.126129
[L_front_hand01_02]
22 71.020905 -0.000179 0.000030 0.000326 -0.002324 -105.969223 71.020905
23 71.020905 -0.000179 0.000030 0.000329 -0.002324 -106.126221 71.020905
[L_front_hand02_02]
22 71.020927 -0.000119 0.000060 0.000326 -0.002324 -105.969223 71.020927
23 71.020927 -0.000119 0.000060 0.000329 -0.002324 -106.126221 71.020927
[L_front_hand03_02]
22 71.020905 -0.000060 0.000060 0.000326 -0.002324 -105.969223 71.020905
23 71.020905 -0.000060 0.000060 0.000329 -0.002324 -106.126221 71.020905
[R_forearm]
22 322.776428 -0.000060 0.000030 0.212645 0.018889 -95.780594 322.776428
23 322.776428 -0.000060 0.000030 0.212602 0.019371 -96.040054 322.776428
[R_front_hand]
22 238.847015 -0.006795 2.210259 9.794804 -10.645582 -26.315531 238.857239
23 238.847015 -0.006795 2.210259 11.286597 -10.642891 -26.312195 238.857239
[R_weapon_bone]
22 155.664093 0.002503 -0.000030 0.003487 0.001180 -90.988930 155.664078
23 155.664093 0.002503 -0.000030 0.003487 0.001180 -90.988930 155.664078
[R_front_hand01_01]
22 87.624611 14.231146 22.918642 -150.820572 -58.784584 57.311871 91.683487
23 87.624611 14.231146 22.918642 -153.536880 -59.633732 60.470898 91.683487
[R_front_hand02_01]
22 89.356956 14.367283 -19.491137 151.027100 57.144756 59.518597 92.579636
23 89.356956 14.367283 -19.491137 153.567596 57.993011 62.531052 92.579636
[R_front_hand03_01]
22 87.286232 -22.307278 -0.143439 0.144811 -0.432554 -73.232857 90.091743
23 87.286232 -22.307278 -0.143439 0.155617 -0.427176 -75.061516 90.091743
[R_front_hand01_02]
22 71.020905 0.000060 0.000119 0.002323 -0.000334 106.381714 71.020905
23 71.020905 0.000060 0.000119 0.002323 -0.000334 106.381714 71.020905
[R_front_hand02_02]
22 71.020844 -0.000030 -0.000119 0.002323 -0.000334 106.381714 71.020836
23 71.020844 -0.000030 -0.000119 0.002323 -0.000334 106.381714 71.020836
[R_front_hand03_02]
22 71.020905 0.000000 0.000030 0.002323 -0.000334 106.381714 71.020905
23 71.020905 0.000000 0.000030 0.002323 -0.000334 106.381714 71.020905
[null_rope01_connect]
22 328.732483 0.000000 -0.000238 -144.051865 -57.141983 -172.051758 328.732483
23 328.732483 0.000000 -0.000238 -144.083420 -55.121513 -171.545975 328.732483
[Rope1_Seg01]
22 -0.000031 0.000024 0.000094 -55.839001 32.690842 -95.015419 0.000102
23 -0.000031 0.000023 0.000092 -20.475233 19.767731 -104.924576 0.000099
[Rope1_Seg02]
22 139.999863 -0.000179 0.000000 -46.862354 19.075577 6.827442 139.999863
23 139.999863 -0.000179 0.000000 -126.049438 26.263519 -9.499383 139.999863
[Rope1_Seg03]
22 139.999924 0.000060 -0.000060 -35.336510 15.016422 21.800842 139.999924
23 139.999924 0.000060 -0.000060 -26.555769 0.238612 31.978260 139.999924
[Rope1_Seg04]
22 139.999924 -0.000060 -0.000119 -11.025461 0.278394 18.977509 139.999924
23 139.999924 -0.000060 -0.000119 -0.288416 -10.997050 10.862072 139.999924
[Rope1_Seg05]
22 139.999832 0.000119 -0.000060 11.241521 -22.696245 -4.197351 139.999832
23 139.999832 0.000119 -0.000060 12.936158 -27.023247 -9.939351 139.999832
[Rope1_Seg06]
22 139.999954 0.000119 -0.000060 7.501222 -28.171175 -5.863887 139.999954
23 139.999954 0.000119 -0.000060 4.307567 -24.485777 -5.061637 139.999954
[Rope1_Seg07]
22 139.999985 0.000060 0.000000 0.201881 -10.226186 0.703588 139.999985
23 139.999985 0.000060 0.000000 -0.160589 -9.728587 -0.193147 139.999985
[Rope1_Seg09]
22 121.602913 0.000119 -0.000089 -89.793175 -1.359789 0.847147 121.602913
23 121.602913 0.000119 -0.000089 -89.793175 -1.359789 0.847147 121.602913
[L_mid_hand01]
22 103.859421 1.038730 8.195221 114.394867 -53.111465 -20.468855 104.187431
23 103.859421 1.038730 8.195221 116.522400 -56.273518 -23.071623 104.187431
[L_mid_hand02]
22 105.572853 -4.139662 -10.864139 -154.909485 38.072231 -52.197922 106.211075
23 105.572853 -4.139662 -10.864139 -157.484589 39.487522 -56.304882 106.211075
[L_mid_hand03]
22 104.641464 17.579376 -3.913581 -11.031648 15.280059 57.403923 106.179977
23 104.641464 17.579376 -3.913581 -10.068317 15.918207 60.978386 106.179977
[null_rope02_connect]
22 328.732849 0.000179 -0.000119 -89.842751 71.488884 40.025970 328.732849
23 328.732849 0.000179 -0.000119 -84.782822 72.001236 44.039425 328.732849
[Rope2_Seg01]
22 0.000053 0.000094 0.000000 63.778278 -3.400319 -61.684669 0.000108
23 0.000053 0.000092 0.000000 51.966171 5.022244 -50.213177 0.000106
[Rope2_Seg02]
22 139.999741 -0.000060 -0.000119 -169.205933 30.469898 -13.978443 139.999756
23 139.999741 -0.000060 -0.000119 -164.107788 30.011316 -8.926294 139.999756
[Rope2_Seg03]
22 140.000107 0.000030 0.000000 -14.039113 -15.513993 13.053653 140.000107
23 140.000107 0.000030 0.000000 -8.814146 -10.692100 9.634797 140.000107
[Rope2_Seg04]
22 139.999802 0.000000 -0.000060 -0.858297 -6.572140 3.410211 139.999802
23 139.999802 0.000000 -0.000060 -0.212823 -6.710217 3.066280 139.999802
[Rope2_Seg05]
22 139.999985 -0.000060 0.000119 0.936803 -9.530204 3.194647 139.999985
23 139.999985 -0.000060 0.000119 2.891657 -18.755623 3.852334 139.999985
[Rope2_Seg06]
22 139.999893 -0.000030 -0.000119 -2.875856 -39.039280 14.489128 139.999893
23 139.999893 -0.000030 -0.000119 -5.124142 -47.802242 14.952013 139.999893
[Rope2_Seg07]
22 139.999893 0.000060 -0.000060 -7.742719 -40.583012 17.921494 139.999893
23 139.999893 0.000060 -0.000060 -3.335176 -22.611902 6.776724 139.999893
[Rope2_Seg09]
22 121.338966 0.000089 -0.000060 33.793236 -1.359788 -0.847141 121.338966
23 121.338966 0.000089 -0.000060 33.793236 -1.359788 -0.847141 121.338966
[R_mid_hand01]
22 104.680779 11.144459 -10.335981 -36.871487 32.306076 38.202847 105.778534
23 104.680779 11.144459 -10.335981 -35.915787 33.394672 39.963593 105.778534
[R_mid_hand02]
22 104.070427 2.443552 8.231699 70.159813 -43.055172 14.371502 104.424065
23 104.070427 2.443552 8.231699 69.545189 -44.771057 15.251757 104.424065
[R_mid_hand03]
22 106.028137 -11.221827 -5.996406 -170.040375 12.343992 -47.884903 106.788818
23 106.028137 -11.221827 -5.996406 -170.436981 12.655033 -49.730160 106.788818
[spine02]
22 129.756927 0.001550 0.000119 -0.884306 -3.962420 4.705204 129.756927
23 129.756927 0.001550 0.000119 -0.856687 -3.968323 4.332871 129.756927
[spine03]
22 78.613998 0.081554 -4.898987 1.131355 4.122440 5.503342 78.766541
23 78.613998 0.081543 -4.898987 1.149432 4.117200 5.734358 78.766541
[pelvis]
22 169.435242 0.051022 0.000000 0.010255 -0.190978 -8.116073 169.435257
23 169.435242 0.051022 0.000000 0.009495 -0.191017 -7.659991 169.435257
[null_rope03_connect]
22 -1.257226 -2.466202 137.391083 -149.459061 -78.357353 -124.294052 137.418976
23 -1.257226 -2.466202 137.391083 -150.760056 -77.187012 -122.938271 137.418976
[null_rope04_connect]
22 -1.259640 -2.480268 -137.844437 -149.459061 -78.357353 -124.294052 137.872513
23 -1.259640 -2.480268 -137.844437 -150.760056 -77.187012 -122.938271 137.872513
[Rope3_Seg01]
22 0.000000 0.000000 0.000000 -136.313431 -51.118965 -77.942368 0.000000
23 0.000000 0.000000 0.000000 -141.256058 -46.839336 -69.662445 0.000000
[Rope3_Seg02]
22 139.999924 -0.000119 0.000060 12.025292 -25.550888 -22.794724 139.999924
23 139.999924 -0.000119 0.000060 12.434249 -24.621365 -18.738155 139.999924
[Rope3_Seg03]
22 139.999924 -0.000119 0.000119 22.352419 -20.826389 -4.525905 139.999924
23 139.999924 -0.000119 0.000119 21.839319 -20.156691 -1.318314 139.999924
[Rope3_Seg04]
22 139.999924 0.000119 0.000000 12.396375 -8.139536 1.560133 139.999924
23 139.999924 0.000119 0.000000 11.290907 -8.182474 1.324026 139.999924
[Rope3_Seg05]
22 139.999924 -0.000238 0.000060 5.394724 -8.170019 -9.566749 139.999924
23 139.999924 -0.000238 0.000060 14.558167 -12.937569 -12.990208 139.999924
[Rope3_Seg06]
22 139.999893 -0.000119 -0.000060 -175.173920 -18.729122 -30.447758 139.999893
23 139.999893 -0.000119 -0.000060 160.460892 -30.973743 -29.107233 139.999893
[Rope3_Seg07]
22 139.999771 0.000060 -0.000119 3.205442 15.116177 23.103954 139.999771
23 139.999771 0.000060 -0.000119 4.927309 8.671724 18.230261 139.999771
[Rope3_Seg08]
22 139.999985 -0.000060 0.000000 0.503334 5.993077 7.864024 139.999985
23 139.999985 -0.000060 0.000000 1.134171 4.057648 6.771430 139.999985
[Rope3_Seg09]
22 90.185997 -0.000179 -0.000060 89.793228 -1.359877 -0.847183 90.185997
23 90.185997 -0.000179 -0.000060 89.793228 -1.359877 -0.847183 90.185997
[R_rear_hand01]
22 103.366196 -6.073594 -10.757982 -165.575058 20.224260 -42.745815 104.101845
23 103.366196 -6.073594 -10.757982 -166.511459 20.844780 -45.419312 104.101845
[R_rear_hand02]
22 100.509819 12.039542 -7.992327 -29.842962 25.960030 40.362503 101.543350
23 100.509819 12.039542 -7.992327 -28.715403 27.221794 42.882904 101.543350
[R_rear_hand03]
22 101.539970 5.215704 5.435467 82.169098 -43.351940 9.256881 101.819031
23 101.539970 5.215704 5.435467 81.812378 -45.906330 9.761464 101.819031
[Rope4_Seg01]
22 0.000010 0.000024 -0.000094 43.318394 -32.582985 -86.971802 0.000098
23 0.000010 0.000023 -0.000092 42.535168 -31.586370 -85.431274 0.000095
[Rope4_Seg02]
22 139.999985 0.000060 0.000119 1.445934 -27.532234 3.024153 139.999985
23 139.999985 0.000060 0.000119 0.615565 -25.821365 3.920676 139.999985
[Rope4_Seg03]
22 139.999924 0.000000 -0.000238 12.197038 -31.998009 4.567093 139.999924
23 139.999924 0.000000 -0.000238 11.223313 -33.472023 5.807986 139.999924
[Rope4_Seg04]
22 139.999985 0.000000 0.000119 11.243512 -11.965834 4.367914 139.999985
23 139.999985 0.000000 0.000119 13.640650 -15.007360 5.832700 139.999985
[Rope4_Seg05]
22 139.999802 -0.000060 -0.000119 33.336544 -18.973312 13.894288 139.999802
23 139.999802 -0.000060 -0.000119 32.395626 -18.346495 15.914821 139.999802
[Rope4_Seg06]
22 139.999924 0.000000 0.000060 40.305473 -12.659923 41.223370 139.999924
23 139.999924 0.000000 0.000060 32.589725 -7.890745 32.302189 139.999924
[Rope4_Seg07]
22 139.999802 0.000000 0.000000 7.636883 8.237610 17.143734 139.999802
23 139.999802 0.000000 0.000000 7.498013 4.873109 13.526137 139.999802
[Rope4_Seg08]
22 139.999924 0.000000 0.000119 -0.150190 3.351004 5.303213 139.999924
23 139.999924 0.000000 0.000119 0.537493 2.626087 5.225004 139.999924
[Rope4_Seg09]
22 90.185791 0.000060 0.000060 -135.617828 2.228885 0.850567 90.185791
23 90.185791 0.000060 0.000060 -135.617828 2.228885 0.850567 90.185791
[L_rear_hand01]
22 101.696655 -8.392275 -7.654577 -22.991789 -32.088047 125.593941 102.329041
23 101.696655 -8.392275 -7.654577 -21.250166 -33.196434 122.367783 102.329041
[L_rear_hand02]
22 102.726799 -1.568258 5.773216 79.542938 56.888885 167.348526 102.900848
23 102.726799 -1.568258 5.773216 78.649612 59.766800 166.297333 102.900848
[L_rear_hand03]
22 104.552910 9.721220 -10.420293 -170.919922 -23.031254 -122.815819 105.519653
23 104.552910 9.721220 -10.420293 -172.167084 -23.462940 -119.660820 105.519653
